<svg id="Elements" xmlns="http://www.w3.org/2000/svg" viewBox="0 0 21.59 42.68"><defs><style>.cls-1{fill:#c30005;}</style></defs><title>Arror</title><path class="cls-1" d="M210.72,249.52c-3.6-1.28-3.6-1.28-7.42-9.59-.45,3.54-.82,6-1.09,8.58-.28,2.7-.54,5.42-.67,8.13-.18,3.68-.19,7.37-.38,11.05-.07,1.46.56,3.69-1.88,3.65-2.16,0-2.16-2.2-2.13-3.69.09-5.44.29-10.87.64-16.3.2-3,.77-6,1.25-9.54-3.82,3.07-4.65,8.13-9.32,10.67.09-1.6-.12-2.72.24-3.61a66.27,66.27,0,0,1,10.7-18.12,8,8,0,0,1,1.38-1.34c1.92-1.33,4-.89,4.62,1.33,1.69,5.83,3.13,11.72,4.64,17.6C211.36,248.57,211,248.89,210.72,249.52Z" transform="translate(-189.72 -228.66)"/></svg>